<?xml version="1.0" encoding="UTF-8" standalone="no"?>
<!DOCTYPE svg PUBLIC "-//W3C//DTD SVG 1.1//EN" "http://www.w3.org/Graphics/SVG/1.1/DTD/svg11.dtd">
<svg width="100%" height="100%" viewBox="0 0 2160 2160" version="1.1" xmlns="http://www.w3.org/2000/svg" xmlns:xlink="http://www.w3.org/1999/xlink" xml:space="preserve" xmlns:serif="http://www.serif.com/" style="fill-rule:evenodd;clip-rule:evenodd;stroke-linejoin:round;stroke-miterlimit:2;">
    <g>
        <path d="M820.092,500.299C901.577,492.778 964.884,422.575 964.884,340.463C964.884,252.083 892.802,180 804.421,180C716.041,180 643.959,252.083 643.959,340.463C643.959,367.416 651.481,394.995 664.017,418.188L721.192,1222.71L1310.05,1222.87L1551.58,1788.78L1868.68,1664.42L1819.57,1547.49L1642.11,1611.55L1408.42,1072.04L860.91,1075.72L853.392,973.83L1249.75,973.989L1249.75,823.236L838.276,823.076L820.092,500.299Z"/>
        <path d="M1412.33,1654.1C1312.94,1850.56 1104.92,1980 883.029,1980C557.129,1980 291.324,1714.19 291.324,1388.29C291.324,1159.47 430.005,946.826 636.947,852.563L650.338,1027.32C527.938,1104.45 452.486,1243.62 452.486,1389.49C452.486,1625.91 645.308,1818.73 881.723,1818.73C1098.02,1818.73 1282.46,1652.74 1307.61,1439.79L1412.33,1654.1L1412.33,1654.1Z"/>
    </g>
</svg>
